<svg width="40" height="41" viewBox="0 0 40 41" fill="none" xmlns="http://www.w3.org/2000/svg">
<path d="M20 0.5C31.046 0.5 40 9.454 40 20.5V34.5C40 36.0913 39.3679 37.6174 38.2426 38.7426C37.1174 39.8679 35.5913 40.5 34 40.5H21V31.726C21 29.724 21.122 27.65 22.172 25.946C22.9237 24.7248 23.9293 23.6796 25.1205 22.8813C26.3118 22.0829 27.6607 21.5501 29.076 21.319L29.459 21.257C29.6169 21.203 29.754 21.101 29.851 20.9653C29.9481 20.8296 30.0002 20.6669 30.0002 20.5C30.0002 20.3331 29.9481 20.1704 29.851 20.0347C29.754 19.899 29.6169 19.797 29.459 19.743L29.076 19.681C27.0082 19.3432 25.0987 18.3644 23.6171 16.8829C22.1356 15.4013 21.1568 13.4918 20.819 11.424L20.757 11.041C20.703 10.8831 20.601 10.746 20.4653 10.649C20.3295 10.5519 20.1669 10.4997 20 10.4997C19.8331 10.4997 19.6704 10.5519 19.5347 10.649C19.399 10.746 19.297 10.8831 19.243 11.041L19.181 11.424C18.9499 12.8393 18.4171 14.1883 17.6188 15.3795C16.8204 16.5707 15.7752 17.5763 14.554 18.328C12.85 19.378 10.776 19.5 8.77399 19.5H0.0239868C0.546987 8.919 9.28999 0.5 20 0.5Z" fill="#FFE7C2"/>
<path d="M0 21.5H8.774C10.776 21.5 12.85 21.622 14.554 22.672C15.886 23.4928 17.0072 24.614 17.828 25.946C18.878 27.65 19 29.724 19 31.726V40.5H6C4.4087 40.5 2.88258 39.8679 1.75736 38.7426C0.632141 37.6174 0 36.0913 0 34.5L0 21.5ZM40 2.5C40 3.03043 39.7893 3.53914 39.4142 3.91421C39.0391 4.28929 38.5304 4.5 38 4.5C37.4696 4.5 36.9609 4.28929 36.5858 3.91421C36.2107 3.53914 36 3.03043 36 2.5C36 1.96957 36.2107 1.46086 36.5858 1.08579C36.9609 0.710714 37.4696 0.5 38 0.5C38.5304 0.5 39.0391 0.710714 39.4142 1.08579C39.7893 1.46086 40 1.96957 40 2.5Z" fill="#FFE7C2"/>
</svg>
