<svg width="118" height="57" viewBox="0 0 118 57" fill="none" xmlns="http://www.w3.org/2000/svg">
<g clip-path="url(#clip0_3_34)">
<path d="M14.2208 14.0638C22.0748 6.29656 34.7375 6.36691 42.5047 14.2209L52.349 24.1752C53.468 25.3067 54.0916 26.8363 54.0828 28.4276C54.074 30.0188 53.4333 31.5414 52.3019 32.6604L43.0586 41.8015L36.889 35.563C35.4812 34.1396 34.1096 32.5791 33.658 30.6292C33.3338 29.2323 33.3139 27.7821 33.5995 26.3768C33.8851 24.9715 34.4696 23.6441 35.3133 22.4846L35.5421 22.1712C35.6164 22.0218 35.6421 21.8529 35.6157 21.6882C35.5893 21.5234 35.512 21.371 35.3946 21.2524C35.2773 21.1337 35.1258 21.0547 34.9613 21.0265C34.7969 20.9982 34.6277 21.0221 34.4775 21.0947L34.1616 21.32C32.4538 22.5338 30.4078 23.1806 28.3126 23.1689C26.2174 23.1573 24.1788 22.4878 22.4846 21.2551L22.1712 21.0264C22.0218 20.952 21.8529 20.9263 21.6881 20.9527C21.5234 20.9792 21.371 21.0565 21.2523 21.1738C21.1337 21.2911 21.0547 21.4426 21.0264 21.6071C20.9982 21.7716 21.022 21.9407 21.0947 22.091L21.3199 22.4069C22.1508 23.5756 22.7206 24.9095 22.9905 26.3178C23.2605 27.7262 23.2244 29.1762 22.8847 30.5693C22.4114 32.5141 21.0225 34.0592 19.5991 35.467L13.3776 41.6197C6.30926 33.7286 6.60578 21.5947 14.2208 14.0638Z" fill="#FAC422"/>
</g>
<path d="M74.5525 36.2843H71.1925L63.5845 24.7883V36.2843H60.2245V19.5083H63.5845L71.1925 31.0283V19.5083H74.5525V36.2843ZM83.777 36.5003C82.497 36.5003 81.345 36.2203 80.321 35.6603C79.297 35.0843 78.489 34.2763 77.897 33.2363C77.321 32.1963 77.033 30.9963 77.033 29.6363C77.033 28.2763 77.329 27.0763 77.921 26.0363C78.529 24.9963 79.353 24.1963 80.393 23.6363C81.433 23.0603 82.593 22.7723 83.873 22.7723C85.153 22.7723 86.313 23.0603 87.353 23.6363C88.393 24.1963 89.209 24.9963 89.801 26.0363C90.409 27.0763 90.713 28.2763 90.713 29.6363C90.713 30.9963 90.401 32.1963 89.777 33.2363C89.169 34.2763 88.337 35.0843 87.281 35.6603C86.241 36.2203 85.073 36.5003 83.777 36.5003ZM83.777 33.5723C84.385 33.5723 84.953 33.4283 85.481 33.1403C86.025 32.8363 86.457 32.3883 86.777 31.7963C87.097 31.2043 87.257 30.4843 87.257 29.6363C87.257 28.3723 86.921 27.4043 86.249 26.7323C85.593 26.0443 84.785 25.7003 83.825 25.7003C82.865 25.7003 82.057 26.0443 81.401 26.7323C80.761 27.4043 80.441 28.3723 80.441 29.6363C80.441 30.9003 80.753 31.8763 81.377 32.5643C82.017 33.2363 82.817 33.5723 83.777 33.5723ZM96.5377 25.0523C96.9697 24.3483 97.5297 23.7963 98.2177 23.3963C98.9217 22.9963 99.7217 22.7963 100.618 22.7963V26.3243H99.7297C98.6737 26.3243 97.8737 26.5723 97.3297 27.0683C96.8017 27.5643 96.5377 28.4283 96.5377 29.6603V36.2843H93.1777V22.9883H96.5377V25.0523ZM102.017 29.5883C102.017 28.2443 102.281 27.0523 102.809 26.0123C103.353 24.9723 104.081 24.1723 104.993 23.6123C105.921 23.0523 106.953 22.7723 108.089 22.7723C109.081 22.7723 109.945 22.9723 110.681 23.3723C111.433 23.7723 112.033 24.2763 112.481 24.8843V22.9883H115.865V36.2843H112.481V34.3403C112.049 34.9643 111.449 35.4843 110.681 35.9003C109.929 36.3003 109.057 36.5003 108.065 36.5003C106.945 36.5003 105.921 36.2123 104.993 35.6363C104.081 35.0603 103.353 34.2523 102.809 33.2123C102.281 32.1563 102.017 30.9483 102.017 29.5883ZM112.481 29.6363C112.481 28.8203 112.321 28.1243 112.001 27.5483C111.681 26.9563 111.249 26.5083 110.705 26.2043C110.161 25.8843 109.577 25.7243 108.953 25.7243C108.329 25.7243 107.753 25.8763 107.225 26.1803C106.697 26.4843 106.265 26.9323 105.929 27.5243C105.609 28.1003 105.449 28.7883 105.449 29.5883C105.449 30.3883 105.609 31.0923 105.929 31.7003C106.265 32.2923 106.697 32.7483 107.225 33.0683C107.769 33.3883 108.345 33.5483 108.953 33.5483C109.577 33.5483 110.161 33.3963 110.705 33.0923C111.249 32.7723 111.681 32.3243 112.001 31.7483C112.321 31.1563 112.481 30.4523 112.481 29.6363Z" fill="black"/>
<defs>
<clipPath id="clip0_3_34">
<rect width="40" height="40" fill="white" transform="translate(0 28.2843) rotate(-45)"/>
</clipPath>
</defs>
</svg>
